<?xml version="1.0" encoding="UTF-8"?>
<svg xmlns="http://www.w3.org/2000/svg" version="1.1" viewBox="0 0 800 800">
  <defs>
    <style>
      .cls-1 {
        fill: #dda85f;
      }

      .cls-2 {
        fill: #5db530;
      }

      .cls-3 {
        fill: #f2cb7d;
      }

      .cls-4 {
        fill: #a37f6a;
      }

      .cls-5 {
        fill: #6d4934;
      }
    </style>
  </defs>
  <g>
    <g>
      <g>
        <path class="cls-1"
          d="M433.2,267.5l29.2-217c-28-7-56-24.5-86.3-24.5s-58.3,17.5-87.5,25.7c-29.2,7-61.8,5.8-87.5,21s-42,44.3-63,65.3-50.2,37.3-65.3,63c-15.2,25.7-14,58.3-22.2,87.5-7,29.2-24.5,57.2-24.5,87.5s17.5,58.3,25.7,87.5c7,29.2,5.8,61.8,21,87.5,15.2,25.7,44.3,42,65.3,63s36.2,50.2,63,65.3c25.7,15.2,58.3,14,87.5,22.2,29.2,7,57.2,24.5,87.5,24.5s58.3-17.5,87.5-25.7,61.8-7,87.5-22.2,42-44.3,63-65.3,50.2-36.2,65.3-63c15.2-25.7,14-58.3,22.2-87.5,7-28,24.5-56,24.5-86.3s-24.5-94.5-24.5-94.5l-268.3-14" />
        <path class="cls-3"
          d="M695.7,264c-11.7,3.5-28,2.3-45.5-4.7-24.5-9.3-39.7-29.2-44.3-52.5-11.7,3.5-39.7,0-58.3-11.7-28-17.5-33.8-66.5-33.8-66.5-31.5-9.3-54.8-46.7-51.3-78.2-25.7-7-58.3-5.8-86.3-5.8s-53.7,16.3-79.3,23.3c-26.8,7-57.2,5.8-80.5,19.8s-38.5,40.8-57.2,59.5-46.7,33.8-59.5,57.2c-14,23.3-12.8,53.7-19.8,80.5-7,25.7-23.3,51.3-23.3,79.3s16.3,53.7,23.3,79.3c7,26.8,5.8,57.2,19.8,80.5s40.8,38.5,59.5,57.2c19.8,19.8,33.8,46.7,57.2,59.5,23.3,14,53.7,12.8,80.5,19.8,25.7,7,51.3,23.3,79.3,23.3s53.7-16.3,79.3-23.3c26.8-7,57.2-5.8,80.5-19.8s38.5-40.8,57.2-59.5,46.7-33.8,59.5-57.2c14-23.3,12.8-53.7,19.8-80.5,7-25.7,35-46.7,38.5-74.7,9.3-45.5-14-96.8-15.2-105" />
        <g>
          <path class="cls-1" d="M587.2,128.7l-16.3,16.3-15.2-16.3,15.2-15.2,16.3,15.2Z" />
          <path class="cls-1" d="M653.7,210.3l-7,8.2-8.2-8.2,8.2-8.2,7,8.2Z" />
          <path class="cls-1" d="M595.3,156.7l-8.2,8.2-8.2-8.2,8.2-8.2,8.2,8.2Z" />
          <path class="cls-1" d="M523,85.5l-8.2,8.2-8.2-8.2,8.2-8.2,8.2,8.2Z" />
          <path class="cls-1" d="M670,239.5l-8.2,8.2-8.2-8.2,8.2-8.2,8.2,8.2Z" />
          <path class="cls-1" d="M677,210.3l-8.2,8.2-8.2-8.2,8.2-8.2,8.2,8.2Z" />
        </g>
        <path class="cls-5"
          d="M140.3,243c-11.7,19.8,5.8,56,29.2,66.5,33.8,14,53.7,16.3,74.7-19.8,7-12.8,16.3-46.7,12.8-54.8-4.7-11.7-24.5-35-37.3-35-36.2,1.2-71.2,29.2-79.3,43.2" />
        <path class="cls-4" d="M146.2,243c-8.2,14,12.8,56,40.8,52.5,38.5-4.7,35-84,18.7-84-28,0-53.7,21-59.5,31.5" />
        <path class="cls-5"
          d="M530,458.8c16.3-4.7,28-33.8,21-51.3-10.5-26.8-21-38.5-51.3-30.3-10.5,3.5-35,16.3-37.3,22.2-3.5,9.3-5.8,32.7,1.2,39.7,19.8,19.8,54.8,23.3,66.5,19.8" />
        <path class="cls-4"
          d="M513.7,430.8c12.8-3.5,32.7-43.2,11.7-45.5-36.2-5.8-64.2,11.7-60.7,31.5s39.7,16.3,49,14" />
        <path class="cls-5"
          d="M293.2,521.8c-3.5-14-29.2-24.5-45.5-17.5-23.3,9.3-33.8,17.5-25.7,44.3,2.3,9.3,14,30.3,19.8,31.5,8.2,3.5,28,4.7,33.8-1.2,17.5-16.3,19.8-46.7,17.5-57.2" />
        <path class="cls-4"
          d="M273.3,511.3c-2.3-10.5-51.3,4.7-46.7,23.3,9.3,31.5,9.3,36.2,18.7,35,17.5-4.7,29.2-50.2,28-58.3" />
        <path class="cls-5"
          d="M598.8,300.2c-14,3.5-24.5,29.2-17.5,45.5,9.3,23.3,31.5,26.8,56,14,21-10.5,22.2-47.8,16.3-54.8-17.5-17.5-44.3-7-54.8-4.7" />
        <path class="cls-4"
          d="M593,313c-7,8.2-12.8,40.8,4.7,36.2,31.5-9.3,53.7-40.8,39.7-45.5-17.5-5.8-36.2,0-44.3,9.3" />
        <path class="cls-5" d="M268,190.6l23.1-23.1,23.1,23.1-23.1,23.1-23.1-23.1Z" />
        <g>
          <path class="cls-1" d="M174.2,393.3l23.1-23.1,23.1,23.1-23.1,23.1-23.1-23.1Z" />
          <path class="cls-1" d="M407.5,525.5l23.1-23.1,23.1,23.1-23.1,23.1-23.1-23.1Z" />
          <path class="cls-1" d="M376.4,461l31.3-31.3,31.3,31.3-31.3,31.3-31.3-31.3Z" />
          <path class="cls-1" d="M290.8,117.3l31.3-31.3,31.3,31.3-31.3,31.3-31.3-31.3Z" />
        </g>
        <g>
          <path class="cls-5" d="M482.4,543.4l23.1-23.1,23.1,23.1-23.1,23.1-23.1-23.1h0Z" />
          <path class="cls-5" d="M575.2,413.5l23.1-23.1,23.1,23.1-23.1,23.1-23.1-23.1Z" />
          <path class="cls-5" d="M490.5,290.1l11.6-11.5,11.6,11.5-11.6,11.5-11.6-11.5Z" />
          <path class="cls-5" d="M162.8,449.1l11.5-11.6,11.5,11.6-11.5,11.6-11.5-11.6Z" />
        </g>
      </g>
      <path class="cls-2"
        d="M781.9,691.2c0-2.3,0-4.7-.2-6.9-.3-6.9-.5-13.7-.8-20.6-.4-9.8-.7-19.6-1.1-29.5v-4c-.5-8.4-.8-17-1-25.5,0-1.2-.3-2.4-1.1-3.5-.8-1.1-1.9-1.9-3.2-2.5-2.1-.9-4.5-1.4-6.9-1.5-4.9-.3-9.9-.4-14.8-.3-24.6.5-48.9,1-72.1,1.6-4.5.1-9,.5-13.4.9h-.3c-3.3.3-5.2,1.9-5.5,4.7-.2,2-.4,4-.7,5.9-.6,5.5-1.3,11.1-1.6,16.7-.8,12.1-1.5,24.5-2.1,36.4-.3,5.5-.6,11-.9,16.5,0,.4-.1.9-.2,1.3,0,0,0,.1,0,.2l-25.4,1.1c0,0,0-.2,0-.2-.1-.2-.2-.4-.2-.6-.5-7.7-.9-15.5-1.4-23.2-.6-9.8-1.1-19.6-1.7-29.3-.6-9.8-1.1-18-1.7-25.6-.3-3.5-1.8-5-6-5.8-1.8-.3-3.6-.5-5.4-.5-2.2,0-4.3,0-6.5,0-6.3,0-12.9-.1-19.3.1-9.5.4-19.2.8-28.5,1.3-12.9.6-26.2,1.3-39.3,1.7-8.1.3-12.1,3.3-13.3,10-.2,1.2-.4,2.3-.4,3.5,0,3.8,0,7.6,0,11.3,0,9.5-.1,19.3.2,28.9.2,7.5.6,15.1,1,22.5.5,9.1,1,18.6,1.1,27.9.2,15,0,30.3-.1,45.1,0,6.1-.1,12.1-.2,18.2,0,5.9,1.8,7.6,9,8.2.7,0,1.3,0,2,0,.4,0,.8,0,1.2,0,2.7.1,5.3.2,8,.3,5.8.2,11.8.5,17.7.9,18.8,1.5,38,1.8,56.6,2.1,5.7,0,11.4.2,17,.3.4,0,.7,0,1.1,0,.7,0,1.5,0,2.2-.1,1,0,1.9-.3,2.8-.6.9-.4,1.6-.9,2.2-1.5.5-.6.9-1.3,1.1-2,.2-.7.2-1.5,0-2.2-1.7-9.3-1-18.8-.4-28,.2-3,.4-6,.5-9,.1-3.5.3-7.1.5-10.6.6-10.3,1.2-20.9.4-31.3,0-.6,0-1.1.3-1.7,0-.1,0-.2,0-.3l24.7-.9c0,.1,0,.2,0,.3.1.3.2.7.2,1,.2,4,.3,8,.4,12,.3,8.1.5,16.5,1,24.7.6,11.1,1.6,22.7,2.4,32,.3,3.2.9,6.3,1.7,9.4,1.2,4.2,3.3,4.9,8,5,11.1.2,22.2.3,33.4.5,5.9,0,11.8.2,17.7.3,1.1,0,2.1,0,3.2,0,3.3,0,6.7.1,10,0,9-.1,18.1-.3,26.9-.5l9.3-.2c1.3,0,2.6,0,3.8-.2,5.4-.5,7-1.8,7.6-6,.4-2.6.6-5.2.6-7.8,0-23.6,0-47.5,0-70.7v-.4ZM693.4,690.6c-.3.4-.6.9-1,1.2-1.6,1.5-3.3,3-5,4.4-1.1.9-2.1,1.9-3.2,2.8-3.2,2.8-3.6,5.9-1.2,8,.5.5,1.1.8,1.8,1.1.7.3,1.4.4,2.2.4h0c2,0,4.1-.9,6.1-2.5,1.6-1.3,3.2-2.8,4.6-4.2l.4-.3c2-1.8,3.9-3.7,5.9-5.6,1.7-1.6,3.4-3.2,5.1-4.8,2.1-2,3-3.7,2.8-5.3-.2-1.6-1.4-3-3.9-4.6-6.2-3.8-12.5-7.7-18.6-11.5l-4.1-2.5c-3.1-1.9-5.6-2-7.5-.3-1.9,1.7-1.6,4.1.6,6.2,1.5,1.3,3,2.5,4.7,3.7.4.3.7.5,1.1.8l.6.4c1,.7,1.9,1.4,2.7,2.2l-17.6.6c-1-7.7.5-63.3,1.9-71.6l95.4-1.5v.3c.2.7.3,1.4.3,2.1.5,21.8,1,43.6,1.5,65.4.1,6.5.3,13,.4,19.6.2,9.5.4,18.9.6,28.3.1,5.5.3,11.1.5,16.5.2,4.8.3,9.5.4,14.3,0,2.8,0,5.6,0,8.5,0,1.1,0,2.2,0,3.3h-98.3l-3.7-74.6c8-.7,16.1-1,24.2-.8h0ZM522,730.2v-5.1c0-10.7-.1-21.7-.6-32.6-.3-7.5-.8-15.2-1.3-22.5-.9-13.2-1.8-26.8-1.7-40.2,0-4.5.1-9.1.2-13.8v-5.8c14.3,0,28.5-.5,42.3-1,17.6-.7,35.9-1.4,53.9-.8l1.5,74.2c-1.4,0-2.7.2-4.1.2-3.7.2-7.2.4-10.7.5-4.5.1-9.1.1-13.5.2-3.9,0-7.8,0-11.8.2-2.2,0-4.4.3-6.5.8-.8.3-1.4.7-1.9,1.3-.5.5-.8,1.2-.9,1.9-.2,1.2,1.5,2.6,2.7,3,1.9.6,3.9.9,6,.9,10.4.3,21,.5,31.2.7h4c1.4.1,2.8.1,4.4,0h1.6c0,.4,0,.8.1,1.2.1,1.3.3,2.6.3,3.9,0,7.9,0,15.8,0,23.7,0,11.3,0,22.7,0,34,0,3.3.2,6.6.4,10,0,1.3.1,2.7.2,4-32.7.2-65.3-1.6-96-3.4v-3.5c0-3.3,0-6.7,0-10,0-7.2.1-14.7.1-22.1Z" />
    </g>
  </g>
</svg>